<svg width="20" height="20" viewBox="0 0 27 27" fill="none" xmlns="http://www.w3.org/2000/svg">
<rect x="0.852905" y="0.884186" width="26.1176" height="26.1176" rx="4.35294" fill="#9E090F"/>
<path d="M18.3554 12.4013H14.3652V8.41106C14.3652 8.1465 14.2601 7.89277 14.073 7.70569C13.8859 7.51861 13.6322 7.41351 13.3676 7.41351C13.1031 7.41351 12.8493 7.51861 12.6622 7.70569C12.4752 7.89277 12.3701 8.1465 12.3701 8.41106V12.4013H8.37987C8.11531 12.4013 7.86158 12.5064 7.6745 12.6934C7.48742 12.8805 7.38232 13.1342 7.38232 13.3988C7.38232 13.6634 7.48742 13.9171 7.6745 14.1042C7.86158 14.2913 8.11531 14.3964 8.37987 14.3964H12.3701V18.3866C12.3701 18.6511 12.4752 18.9049 12.6622 19.0919C12.8493 19.279 13.1031 19.3841 13.3676 19.3841C13.6322 19.3841 13.8859 19.279 14.073 19.0919C14.2601 18.9049 14.3652 18.6511 14.3652 18.3866V14.3964H18.3554C18.6199 14.3964 18.8737 14.2913 19.0607 14.1042C19.2478 13.9171 19.3529 13.6634 19.3529 13.3988C19.3529 13.1342 19.2478 12.8805 19.0607 12.6934C18.8737 12.5064 18.6199 12.4013 18.3554 12.4013Z" fill="white"/>
</svg>
