<svg width="20" height="20" viewBox="0 0 27 27" fill="none" xmlns="http://www.w3.org/2000/svg">
<rect x="0.852905" y="0.882355" width="26.1176" height="26.1176" rx="4.35294" fill="white"/>
<path d="M18.3554 12.3995H14.3652V8.40932C14.3652 8.14476 14.2601 7.89103 14.073 7.70395C13.8859 7.51687 13.6322 7.41177 13.3676 7.41177C13.1031 7.41177 12.8493 7.51687 12.6622 7.70395C12.4752 7.89103 12.3701 8.14476 12.3701 8.40932V12.3995H8.37987C8.11531 12.3995 7.86158 12.5046 7.6745 12.6917C7.48742 12.8788 7.38232 13.1325 7.38232 13.3971C7.38232 13.6616 7.48742 13.9154 7.6745 14.1024C7.86158 14.2895 8.11531 14.3946 8.37987 14.3946H12.3701V18.3848C12.3701 18.6494 12.4752 18.9031 12.6622 19.0902C12.8493 19.2773 13.1031 19.3824 13.3676 19.3824C13.6322 19.3824 13.8859 19.2773 14.073 19.0902C14.2601 18.9031 14.3652 18.6494 14.3652 18.3848V14.3946H18.3554C18.6199 14.3946 18.8737 14.2895 19.0607 14.1024C19.2478 13.9154 19.3529 13.6616 19.3529 13.3971C19.3529 13.1325 19.2478 12.8788 19.0607 12.6917C18.8737 12.5046 18.6199 12.3995 18.3554 12.3995Z" fill="#9E090F"/>
</svg>
