<svg width="69" height="43" viewBox="0 0 69 43" fill="none" xmlns="http://www.w3.org/2000/svg">
<path d="M7.33887 37.1934C6.49512 37.1934 5.69238 37.0498 4.93066 36.7627C4.16895 36.4697 3.48926 36.0537 2.8916 35.5146C2.29395 34.9756 1.81641 34.2842 1.45898 33.4404C1.10742 32.5908 0.931641 31.6475 0.931641 30.6104C0.931641 29.7432 1.04883 28.9434 1.2832 28.2109C1.52344 27.4727 1.8457 26.8486 2.25 26.3389C2.6543 25.8232 3.12305 25.3838 3.65625 25.0205C4.18945 24.6572 4.75195 24.3906 5.34375 24.2207C5.93555 24.0508 6.54199 23.9658 7.16309 23.9658C8.83887 23.9658 10.2627 24.4258 11.4346 25.3457L10.5645 26.9014C9.5918 26.2275 8.51953 25.8906 7.34766 25.8906C6.80273 25.8906 6.28418 25.999 5.79199 26.2158C5.30566 26.4326 4.875 26.7373 4.5 27.1299C4.125 27.5225 3.82617 28.0176 3.60352 28.6152C3.38086 29.2129 3.26953 29.8691 3.26953 30.584C3.26953 31.9961 3.66797 33.1299 4.46484 33.9854C5.26172 34.8408 6.26953 35.2686 7.48828 35.2686C8.77148 35.2686 9.94922 34.8379 11.0215 33.9766L11.7686 35.7432C10.5264 36.71 9.0498 37.1934 7.33887 37.1934Z" fill="#9E090F"/>
<path d="M13.8867 37V24.1943H16.0664V29.1514C16.2832 28.7354 16.6641 28.3984 17.209 28.1406C17.7539 27.8828 18.2725 27.7539 18.7646 27.7539C19.1807 27.7539 19.5586 27.8037 19.8984 27.9033C20.2441 28.0029 20.5342 28.1348 20.7686 28.2988C21.0029 28.4629 21.208 28.665 21.3838 28.9053C21.5596 29.1396 21.6973 29.3799 21.7969 29.626C21.8965 29.8662 21.9756 30.1328 22.0342 30.4258C22.0986 30.7188 22.1396 30.9854 22.1572 31.2256C22.1807 31.4658 22.1924 31.7178 22.1924 31.9814V37H20.0127V31.9111C20.0127 31.0615 19.8809 30.4521 19.6172 30.083C19.3535 29.708 18.958 29.5205 18.4307 29.5205C17.833 29.5205 17.2881 29.7285 16.7959 30.1445C16.3096 30.5547 16.0664 31.0293 16.0664 31.5684V37H13.8867ZM24.5918 26.1191V24.2031H26.7012V26.1191H24.5918ZM24.6006 37V27.9824H26.7012V37H24.6006ZM33.6094 37.2021C32.877 37.2021 32.2061 37.0732 31.5967 36.8154C30.9932 36.5576 30.498 36.209 30.1113 35.7695C29.7246 35.3301 29.4258 34.8291 29.2148 34.2666C29.0039 33.6982 28.8984 33.1035 28.8984 32.4824C28.8984 31.5918 29.0801 30.792 29.4434 30.083C29.8125 29.3682 30.3545 28.8027 31.0693 28.3867C31.79 27.9648 32.6279 27.7539 33.583 27.7539C35.001 27.7539 36.0908 28.1582 36.8525 28.9668L36.0703 30.373C35.4199 29.7988 34.667 29.5117 33.8115 29.5117C32.9561 29.5117 32.2998 29.7812 31.8428 30.3203C31.3857 30.8594 31.1572 31.583 31.1572 32.4912C31.1572 33.376 31.4004 34.0908 31.8867 34.6357C32.373 35.1748 33.0381 35.4443 33.8818 35.4443C33.999 35.4443 34.1162 35.4385 34.2334 35.4268C34.3506 35.415 34.4561 35.4004 34.5498 35.3828C34.6436 35.3652 34.7402 35.3418 34.8398 35.3125C34.9453 35.2773 35.0332 35.248 35.1035 35.2246C35.1738 35.1953 35.2529 35.1572 35.3408 35.1104C35.4287 35.0635 35.4961 35.0283 35.543 35.0049C35.5957 34.9756 35.6602 34.9346 35.7363 34.8818C35.8125 34.8291 35.8623 34.7939 35.8857 34.7764C35.915 34.7588 35.9619 34.7266 36.0264 34.6797C36.0967 34.627 36.1348 34.5977 36.1406 34.5918L36.7998 36.1914C36.2959 36.543 35.792 36.8008 35.2881 36.9648C34.7842 37.123 34.2246 37.2021 33.6094 37.2021ZM38.6016 37V24.1943H40.7812V31.665L44.042 27.9824H47.0479L42.75 32.3418L47.3291 37H44.4463L40.7812 33.0977V37H38.6016ZM50.1064 31.4102H54.5889C54.4834 30.7715 54.2461 30.2822 53.877 29.9424C53.5078 29.6025 53.0566 29.4326 52.5234 29.4326C51.8965 29.4326 51.3721 29.6084 50.9502 29.96C50.5283 30.3115 50.2471 30.7949 50.1064 31.4102ZM52.6816 37.2021C51.1641 37.2021 49.9658 36.7686 49.0869 35.9014C48.2139 35.0342 47.7773 33.9004 47.7773 32.5C47.7773 31.8672 47.8828 31.2666 48.0938 30.6982C48.3047 30.1299 48.6006 29.626 48.9814 29.1865C49.3682 28.7471 49.8545 28.3984 50.4404 28.1406C51.0322 27.8828 51.6855 27.7539 52.4004 27.7539C53.1152 27.7539 53.7393 27.877 54.2725 28.123C54.8057 28.3691 55.2275 28.7148 55.5381 29.1602C55.8486 29.5996 56.0771 30.0947 56.2236 30.6455C56.376 31.1963 56.4521 31.8057 56.4521 32.4736C56.4521 32.6436 56.4375 32.7725 56.4082 32.8604H50.0801C50.1152 33.7393 50.3818 34.3896 50.8799 34.8115C51.3838 35.2334 52.0518 35.4443 52.8838 35.4443C53.8564 35.4443 54.8057 35.1221 55.7314 34.4775L56.3203 36.0596C55.752 36.4521 55.1777 36.7422 54.5977 36.9297C54.0234 37.1113 53.3848 37.2021 52.6816 37.2021ZM58.8164 37V31.4189C58.8164 30.7803 58.8018 30.1768 58.7725 29.6084C58.7432 29.0342 58.7139 28.6211 58.6846 28.3691L58.6406 27.9824H60.9521V29.1865C61.2627 28.7178 61.6758 28.3633 62.1914 28.123C62.7129 27.877 63.2168 27.7539 63.7031 27.7539C64.2246 27.7539 64.6816 27.8242 65.0742 27.9648C65.4668 28.0996 65.8125 28.3223 66.1113 28.6328C66.416 28.9375 66.6475 29.3594 66.8057 29.8984C66.9639 30.4375 67.043 31.0908 67.043 31.8584V37H64.8633V31.709C64.8633 30.9121 64.7373 30.3496 64.4854 30.0215C64.2393 29.6875 63.8291 29.5205 63.2549 29.5205C63.0439 29.5205 62.8125 29.5674 62.5605 29.6611C62.3086 29.7549 62.0625 29.8867 61.8223 30.0566C61.5879 30.2207 61.3916 30.4404 61.2334 30.7158C61.0752 30.9854 60.9961 31.2812 60.9961 31.6035V37H58.8164Z" fill="black"/>
<path d="M35.0454 13.0431C34.1986 12.5524 33.5807 11.7457 33.3269 10.7999C33.0731 9.85409 33.2042 8.84639 33.6915 7.99769C34.6312 6.36659 37.6191 5.41579 37.9577 5.31099L38.229 5.22866L38.6046 5.44508L39.3963 4.07175C39.1938 4.02254 39.0102 3.91483 38.8683 3.762C38.7264 3.60918 38.6324 3.41799 38.5982 3.21222C38.564 3.00645 38.5909 2.79518 38.6757 2.6047C38.7605 2.41421 38.8993 2.25291 39.075 2.14087C39.2507 2.02883 39.4555 1.97098 39.6638 1.97453C39.8721 1.97808 40.0749 2.04286 40.2468 2.16083C40.4187 2.27879 40.5522 2.44473 40.6307 2.638C40.7092 2.83126 40.7292 3.04333 40.6882 3.24782C40.809 3.1408 40.9527 3.06304 41.1083 3.02054C41.2894 2.97096 41.4803 2.97027 41.6618 3.01856C41.8432 3.06685 42.0087 3.16238 42.1413 3.29545C42.2739 3.42851 42.369 3.59436 42.4168 3.7761C42.4647 3.95784 42.4636 4.149 42.4136 4.33012C42.3637 4.51123 42.2667 4.67584 42.1326 4.8072C41.9984 4.93856 41.8318 5.03197 41.6499 5.07793C41.4679 5.12389 41.2769 5.12076 41.0965 5.06886C40.916 5.01696 40.7525 4.91814 40.6225 4.78245L39.8303 6.15373L40.2061 6.37083L40.27 6.64739C40.3503 6.99299 41.0241 10.0591 40.0831 11.6906C39.5934 12.5381 38.7878 13.1565 37.843 13.41C36.8982 13.6635 35.8913 13.5315 35.0431 13.043L35.0454 13.0431ZM41.9927 8.89389C42.0866 10.1026 41.8518 11.314 41.3133 12.3995C40.6737 13.5926 39.5867 14.4821 38.2915 14.8725C36.9963 15.2629 35.5988 15.1221 34.4067 14.4811C33.2145 13.8401 32.3252 12.7515 31.9345 11.4547C31.5437 10.1578 31.6835 8.75903 32.3231 7.56599C30.7204 8.03003 29.3634 9.10431 28.5432 10.5585C27.723 12.0127 27.5048 13.7311 27.9353 15.3452L29.1938 20.0351L29.7907 19.9777C31.7271 19.8062 33.6535 19.5375 35.5629 19.1728C39.394 18.1448 45.6817 15.8856 44.7221 12.3095C44.251 10.8802 43.2822 9.66797 41.9927 8.89389ZM31.1374 2.75889L29.7691 3.12603L30.5043 5.86588L31.8725 5.49874L31.1374 2.75889ZM33.8739 2.02462L32.5056 2.39175L33.2408 5.1316L34.6091 4.76446L33.8739 2.02462ZM28.4008 3.49317L27.0326 3.86031L27.7677 6.60016L29.136 6.23302L28.4008 3.49317Z" fill="#9E090F"/>
</svg>
